<svg width="22" height="20" viewBox="0 0 22 20" fill="none" xmlns="http://www.w3.org/2000/svg">
<path d="M5.70898 0.689453C5.82617 0.449219 6.00488 0.311523 6.24512 0.276367C6.49121 0.241211 6.71094 0.320312 6.9043 0.513672L8.81152 2.45605L10.4375 0.364258C10.5898 0.15918 10.7803 0.0566406 11.0088 0.0566406C11.2432 0.0566406 11.4395 0.15918 11.5977 0.364258L13.2236 2.45605L15.1221 0.513672C15.3213 0.320312 15.541 0.241211 15.7812 0.276367C16.0273 0.311523 16.209 0.449219 16.3262 0.689453C16.5488 1.19336 16.71 1.7002 16.8096 2.20996C16.9092 2.71387 16.959 3.21191 16.959 3.7041C16.959 4.53613 16.8184 5.3125 16.5371 6.0332C16.2617 6.75391 15.8604 7.38965 15.333 7.94043C14.8115 8.48535 14.1846 8.91309 13.4521 9.22363C12.7256 9.53418 11.9111 9.68945 11.0088 9.68945C10.1123 9.68945 9.29785 9.53418 8.56543 9.22363C7.83887 8.91309 7.21484 8.48535 6.69336 7.94043C6.17188 7.38965 5.77051 6.75391 5.48926 6.0332C5.20801 5.3125 5.06738 4.53613 5.06738 3.7041C5.06738 3.21191 5.11719 2.71387 5.2168 2.20996C5.31641 1.7002 5.48047 1.19336 5.70898 0.689453ZM10.2002 18.6191V8.61719H11.835V17.8281L11.4307 17.5732C11.7764 16.7119 12.2363 15.9121 12.8105 15.1738C13.3848 14.4355 14.0645 13.791 14.8496 13.2402C15.6348 12.6895 16.5137 12.2617 17.4863 11.957C18.459 11.6523 19.5107 11.5 20.6416 11.5C20.9639 11.5 21.1836 11.5938 21.3008 11.7812C21.418 11.9629 21.4238 12.2061 21.3184 12.5107C20.9668 13.5127 20.4512 14.4355 19.7715 15.2793C19.0977 16.1172 18.3008 16.8408 17.3809 17.4502C16.4609 18.0596 15.459 18.5312 14.375 18.8652C13.291 19.2051 12.1689 19.375 11.0088 19.375C10.7803 19.375 10.5869 19.3047 10.4287 19.1641C10.2764 19.0234 10.2002 18.8418 10.2002 18.6191ZM8.91699 14.9189V18.6191C8.91699 18.8008 8.94336 18.9912 8.99609 19.1904C7.71289 18.9678 6.51172 18.5459 5.39258 17.9248C4.2793 17.3096 3.3125 16.5391 2.49219 15.6133C1.67773 14.6875 1.07422 13.6533 0.681641 12.5107C0.576172 12.2061 0.582031 11.9629 0.699219 11.7812C0.822266 11.5938 1.04199 11.5 1.3584 11.5C2.43652 11.5 3.44141 11.6436 4.37305 11.9307C5.30469 12.2119 6.15137 12.6104 6.91309 13.126C7.68066 13.6357 8.34863 14.2334 8.91699 14.9189Z" fill="#168A83"/>
</svg>
